# xmcd
#
# Track frame offsets:
#	150
#	14455
#	27125
#	44802
#	62200
#	76025
#	94397
#	111579
#	138617
#	155140
#	166667
#	185200
#	201777
#	224862
#	243580
#	272667
#	288810
#
# Disc length: 4040 seconds
#
# Revision: 0
# Processed by: cddbd v1.5.2PL0 Copyright (c) Steve Scherf et al.
# Submitted via: audiograbber 1.83.01
#
DISCID=0a0fc611
DTITLE=Tom Russell - The Long Way Around
DYEAR=1997
DGENRE=Country
TTITLE0=St. Olav's Gate [with Nanci Griffith]
TTITLE1=Outbound Plane [with Nanci Griffith]
TTITLE2=Big Water [with Iris DeMent]
TTITLE3=Beyond The Blues [with Jimmy Dale Gilmore]
TTITLE4=Spanish Burgundy
TTITLE5=U.S. Steel
TTITLE6=Walkin' On The Moon [with Katy Moffatt]
TTITLE7=The Angel Of Lyon [live in St. Louis]
TTITLE8=Veteran's Day [live]
TTITLE9=The Eyes Of Roberto Duran [live]
TTITLE10=Blue Wing [live with Dave Alvin]
TTITLE11=Haley's Comet [live with Dave Alvin and Katy Moffatt]
TTITLE12=Manzanar [live with Katy Moffatt]
TTITLE13=Mineral Wells [live with Katy Moffatt]
TTITLE14=Gallo del Cielo [live with Katy Moffatt]
TTITLE15=The Road To Bayamon [live with Katy Moffatt]
TTITLE16=Box Of Visions [duet with Iris DeMent]
EXTD=
EXTT0=
EXTT1=
EXTT2=
EXTT3=
EXTT4=
EXTT5=
EXTT6=
EXTT7=
EXTT8=
EXTT9=
EXTT10=
EXTT11=
EXTT12=
EXTT13=
EXTT14=
EXTT15=
EXTT16=
PLAYORDER=
